<svg width="287" height="179" viewBox="0 0 287 179" fill="none" xmlns="http://www.w3.org/2000/svg">
<rect width="286.4" height="179" fill="#C4C4C4"/>
<circle cx="143.2" cy="62.65" r="23.8667" stroke="black" stroke-width="5.96667"/>
<mask id="path-3-inside-1_2_4121" fill="white">
<path fill-rule="evenodd" clip-rule="evenodd" d="M178.747 179C182.677 171.514 184.967 162.646 184.967 153.045C184.967 125.391 165.969 103.82 143.498 103.82C121.028 103.82 102.03 125.391 102.03 153.045C102.03 162.646 104.32 171.514 108.25 179H104.92C101.183 171.355 99.0467 162.493 99.0467 153.045C99.0467 124.211 118.948 100.837 143.498 100.837C168.048 100.837 187.95 124.211 187.95 153.045C187.95 162.493 185.813 171.355 182.076 179H178.747Z"/>
</mask>
<path fill-rule="evenodd" clip-rule="evenodd" d="M178.747 179C182.677 171.514 184.967 162.646 184.967 153.045C184.967 125.391 165.969 103.82 143.498 103.82C121.028 103.82 102.03 125.391 102.03 153.045C102.03 162.646 104.32 171.514 108.25 179H104.92C101.183 171.355 99.0467 162.493 99.0467 153.045C99.0467 124.211 118.948 100.837 143.498 100.837C168.048 100.837 187.95 124.211 187.95 153.045C187.95 162.493 185.813 171.355 182.076 179H178.747Z" fill="black"/>
<path d="M178.747 179L173.464 176.227L168.876 184.967H178.747V179ZM108.25 179V184.967H118.121L113.533 176.227L108.25 179ZM104.92 179L99.5597 181.62L101.195 184.967H104.92V179ZM182.076 179V184.967H185.801L187.437 181.62L182.076 179ZM184.03 181.773C188.417 173.417 190.933 163.595 190.933 153.045H179C179 161.696 176.937 169.61 173.464 176.227L184.03 181.773ZM190.933 153.045C190.933 123.013 170.112 97.8533 143.498 97.8533V109.787C161.825 109.787 179 127.769 179 153.045H190.933ZM143.498 97.8533C116.885 97.8533 96.0633 123.013 96.0633 153.045H107.997C107.997 127.769 125.171 109.787 143.498 109.787V97.8533ZM96.0633 153.045C96.0633 163.595 98.5801 173.417 102.967 181.773L113.533 176.227C110.06 169.61 107.997 161.696 107.997 153.045H96.0633ZM104.92 184.967H108.25V173.033H104.92V184.967ZM93.08 153.045C93.08 163.391 95.4198 173.15 99.5597 181.62L110.281 176.38C106.947 169.559 105.013 161.594 105.013 153.045H93.08ZM143.498 94.87C114.789 94.87 93.08 121.852 93.08 153.045H105.013C105.013 126.57 123.108 106.803 143.498 106.803V94.87ZM193.917 153.045C193.917 121.852 172.208 94.87 143.498 94.87V106.803C163.889 106.803 181.983 126.57 181.983 153.045H193.917ZM187.437 181.62C191.577 173.15 193.917 163.391 193.917 153.045H181.983C181.983 161.594 180.05 169.559 176.716 176.38L187.437 181.62ZM178.747 184.967H182.076V173.033H178.747V184.967Z" fill="black" mask="url(#path-3-inside-1_2_4121)"/>
</svg>
